<svg xmlns="http://www.w3.org/2000/svg" viewBox="0 0 1600 1000" preserveAspectRatio="xMidYMid slice"><rect width="1600" height="1000" fill="#0A0B14"/><radialGradient id="g" cx="72%" cy="38%" r="55%"><stop offset="0" stop-color="#1B2A3A"/><stop offset="1" stop-color="#0A0B14" stop-opacity="0"/></radialGradient><rect width="1600" height="1000" fill="url(#g)"/><path d="M1203.1,360.0 L1203.2,362.8 L1202.3,365.4 L1200.6,368.0 L1198.0,370.2 L1195.0,372.1 L1191.8,373.8 L1188.7,375.2 L1186.0,376.6 L1183.7,378.1 L1181.9,379.8 L1180.3,381.7 L1178.9,383.7 L1177.2,385.8 L1175.3,387.8 L1172.9,389.4 L1170.1,390.5 L1167.0,391.1 L1163.7,391.3 L1160.5,391.1 L1157.3,390.7 L1154.3,390.5 L1151.4,390.5 L1148.5,390.8 L1145.5,391.4 L1142.3,392.2 L1138.8,393.1 L1135.2,393.8 L1131.4,394.2 L1127.6,394.0 L1124.1,393.3 L1120.8,392.0 L1118.0,390.4 L1115.5,388.4 L1113.5,386.1 L1111.7,383.8 L1110.2,381.4 L1109.1,378.9 L1108.2,376.5 L1107.7,373.9 L1107.7,371.4 L1108.0,368.9 L1108.7,366.5 L1109.6,364.2 L1110.6,362.0 L1111.3,360.0 L1111.6,358.0 L1111.4,356.0 L1110.8,353.8 L1109.8,351.5 L1108.7,348.9 L1107.9,346.1 L1107.6,343.3 L1108.1,340.6 L1109.4,338.2 L1111.5,336.1 L1114.3,334.5 L1117.4,333.2 L1120.7,332.2 L1124.0,331.4 L1127.0,330.5 L1129.9,329.4 L1132.6,328.1 L1135.4,326.6 L1138.3,325.1 L1141.4,323.8 L1144.7,322.9 L1148.2,322.5 L1151.8,322.8 L1155.1,323.8 L1158.3,325.3 L1161.1,327.1 L1163.5,329.2 L1165.8,331.1 L1167.9,332.9 L1170.0,334.4 L1172.2,335.7 L1174.5,336.8 L1177.0,337.8 L1179.5,338.9 L1182.0,340.1 L1184.5,341.4 L1186.9,342.9 L1189.3,344.5 L1191.6,346.3 L1193.9,348.2 L1196.3,350.2 L1198.5,352.4 L1200.5,354.7 L1202.1,357.3 L1203.1,360.0Z" fill="none" stroke="#76D5C7" stroke-opacity="0.33" stroke-width="1"/><path d="M1257.1,360.0 L1257.0,365.5 L1254.8,370.9 L1250.7,375.9 L1245.3,380.2 L1239.0,384.0 L1232.6,387.2 L1226.7,390.2 L1221.6,393.1 L1217.5,396.3 L1214.2,399.9 L1211.4,403.9 L1208.5,408.1 L1205.1,412.2 L1200.9,415.9 L1195.8,418.8 L1190.0,420.7 L1183.6,421.7 L1177.1,421.8 L1170.7,421.4 L1164.5,420.9 L1158.6,420.7 L1152.9,421.1 L1147.1,422.1 L1141.0,423.6 L1134.5,425.3 L1127.5,426.9 L1120.2,428.0 L1112.7,428.3 L1105.5,427.7 L1098.6,426.0 L1092.2,423.4 L1086.6,420.1 L1081.5,416.3 L1077.1,412.2 L1073.2,407.7 L1069.9,403.1 L1067.2,398.3 L1065.5,393.3 L1064.7,388.1 L1064.9,382.9 L1066.1,377.8 L1068.0,372.9 L1070.2,368.3 L1072.2,364.0 L1073.5,360.0 L1073.8,356.1 L1073.0,352.0 L1071.2,347.6 L1068.8,342.7 L1066.5,337.5 L1064.9,331.9 L1064.6,326.4 L1065.9,321.1 L1069.0,316.4 L1073.6,312.5 L1079.3,309.4 L1085.6,307.0 L1092.0,305.1 L1098.2,303.2 L1104.0,301.0 L1109.5,298.5 L1114.9,295.6 L1120.4,292.5 L1126.3,289.5 L1132.6,287.0 L1139.4,285.5 L1146.5,285.2 L1153.5,286.1 L1160.2,288.3 L1166.3,291.4 L1171.9,294.9 L1176.9,298.7 L1181.5,302.2 L1185.9,305.4 L1190.4,308.2 L1194.9,310.7 L1199.6,313.0 L1204.4,315.3 L1209.1,317.7 L1213.8,320.3 L1218.4,323.2 L1222.9,326.2 L1227.6,329.4 L1232.4,332.8 L1237.4,336.4 L1242.6,340.3 L1247.6,344.6 L1252.0,349.4 L1255.4,354.5 L1257.1,360.0Z" fill="none" stroke="#76D5C7" stroke-opacity="0.32" stroke-width="1"/><path d="M1311.9,360.0 L1311.0,368.3 L1306.9,376.3 L1300.1,383.6 L1291.5,390.0 L1281.9,395.6 L1272.6,400.4 L1264.3,405.0 L1257.3,409.7 L1251.8,414.8 L1247.4,420.5 L1243.2,426.7 L1238.7,433.0 L1233.3,439.0 L1226.6,444.1 L1218.6,448.0 L1209.5,450.4 L1199.9,451.5 L1190.2,451.6 L1180.7,451.2 L1171.6,450.9 L1162.9,451.1 L1154.3,452.2 L1145.6,454.1 L1136.3,456.5 L1126.4,459.0 L1116.0,461.1 L1105.1,462.3 L1094.3,462.2 L1083.7,460.7 L1073.6,458.0 L1064.3,454.1 L1055.6,449.5 L1047.7,444.1 L1040.5,438.3 L1034.1,432.0 L1028.6,425.3 L1024.5,418.1 L1021.9,410.5 L1021.1,402.5 L1022.1,394.5 L1024.7,386.6 L1028.2,379.2 L1031.9,372.3 L1034.9,366.0 L1036.5,360.0 L1036.3,354.1 L1034.2,347.9 L1030.8,341.2 L1026.7,333.8 L1023.2,325.8 L1021.0,317.5 L1021.1,309.2 L1023.8,301.6 L1029.0,294.9 L1036.4,289.4 L1045.1,285.0 L1054.5,281.4 L1063.8,278.2 L1072.6,275.0 L1080.9,271.3 L1088.8,267.0 L1096.7,262.3 L1105.1,257.5 L1114.1,253.2 L1123.8,250.0 L1134.1,248.3 L1144.7,248.4 L1155.2,250.2 L1165.1,253.7 L1174.2,258.1 L1182.6,263.2 L1190.3,268.2 L1197.4,273.0 L1204.4,277.4 L1211.3,281.3 L1218.3,285.0 L1225.2,288.7 L1232.0,292.5 L1238.6,296.6 L1245.1,300.9 L1251.4,305.4 L1258.0,310.0 L1265.1,314.7 L1272.7,319.5 L1280.9,324.7 L1289.4,330.4 L1297.6,336.8 L1304.6,343.9 L1309.6,351.7 L1311.9,360.0Z" fill="none" stroke="#76D5C7" stroke-opacity="0.30" stroke-width="1"/><path d="M1367.0,360.0 L1364.8,371.1 L1358.3,381.7 L1348.5,391.2 L1336.5,399.6 L1324.0,406.9 L1312.1,413.5 L1301.9,419.8 L1293.6,426.5 L1287.0,433.7 L1281.4,441.7 L1275.9,450.0 L1269.5,458.3 L1261.7,465.9 L1252.1,472.1 L1240.9,476.6 L1228.5,479.3 L1215.7,480.5 L1202.9,480.7 L1190.6,480.6 L1178.8,480.9 L1167.3,482.0 L1155.9,484.1 L1144.0,487.1 L1131.5,490.3 L1118.3,493.3 L1104.4,495.4 L1090.3,496.2 L1076.2,495.4 L1062.4,493.0 L1049.3,489.2 L1036.8,484.3 L1024.9,478.6 L1013.8,472.1 L1003.4,464.9 L994.2,456.9 L986.4,448.0 L980.8,438.3 L977.8,427.8 L977.5,416.9 L979.9,405.9 L984.2,395.2 L989.6,385.3 L994.7,376.2 L998.4,367.9 L999.8,360.0 L998.4,352.2 L994.7,343.8 L989.3,334.7 L983.6,324.6 L978.9,313.9 L976.7,302.8 L977.7,292.1 L982.2,282.3 L989.9,273.8 L1000.1,266.8 L1011.7,261.1 L1023.8,256.2 L1035.6,251.5 L1046.7,246.6 L1057.3,241.0 L1067.6,234.8 L1078.1,228.3 L1089.5,222.0 L1101.8,216.7 L1115.0,213.0 L1128.9,211.5 L1143.0,212.3 L1156.8,215.2 L1169.9,219.8 L1182.0,225.4 L1193.3,231.5 L1203.7,237.5 L1213.7,243.2 L1223.4,248.5 L1232.9,253.7 L1242.1,258.8 L1251.0,264.2 L1259.5,269.9 L1267.6,275.9 L1275.4,282.0 L1283.5,288.1 L1292.2,294.2 L1302.0,300.1 L1313.0,306.2 L1324.9,312.8 L1337.2,320.2 L1348.8,328.7 L1358.3,338.3 L1364.7,348.9 L1367.0,360.0Z" fill="none" stroke="#76D5C7" stroke-opacity="0.44" stroke-width="1.6"/><path d="M1421.8,360.0 L1417.7,373.9 L1408.5,386.9 L1395.5,398.7 L1380.6,409.0 L1365.4,418.1 L1351.6,426.5 L1340.0,434.8 L1330.7,443.6 L1323.1,453.2 L1316.3,463.4 L1309.1,473.8 L1300.5,483.8 L1289.8,492.6 L1277.1,499.6 L1262.6,504.4 L1247.0,507.3 L1231.1,508.7 L1215.5,509.4 L1200.5,510.0 L1186.0,511.4 L1171.8,513.7 L1157.4,517.0 L1142.4,520.9 L1126.6,524.6 L1110.1,527.7 L1093.0,529.4 L1075.7,529.4 L1058.5,527.7 L1041.7,524.4 L1025.4,519.9 L1009.6,514.2 L994.2,507.7 L979.4,500.4 L965.5,492.0 L953.3,482.3 L943.3,471.2 L936.6,458.8 L933.6,445.2 L934.4,431.1 L938.5,417.0 L945.0,403.5 L952.2,391.2 L958.4,379.9 L962.3,369.7 L962.8,360.0 L959.8,350.1 L954.0,339.6 L946.6,328.0 L939.3,315.3 L934.1,301.8 L932.3,288.2 L934.7,275.2 L941.4,263.5 L951.8,253.3 L964.7,244.8 L978.9,237.6 L993.4,231.1 L1007.3,224.7 L1020.4,217.7 L1033.1,210.0 L1045.8,201.8 L1059.2,193.5 L1073.7,186.0 L1089.5,180.1 L1106.3,176.5 L1123.8,175.6 L1141.4,177.2 L1158.4,181.1 L1174.6,186.5 L1189.8,192.9 L1204.0,199.5 L1217.5,206.1 L1230.5,212.5 L1242.9,218.9 L1254.9,225.4 L1266.2,232.4 L1276.8,239.8 L1286.5,247.7 L1295.7,255.8 L1304.9,263.7 L1314.7,271.4 L1325.9,278.6 L1338.9,285.6 L1353.7,292.8 L1369.9,300.7 L1386.2,309.8 L1401.1,320.5 L1412.9,332.6 L1420.2,346.0 L1421.8,360.0Z" fill="none" stroke="#76D5C7" stroke-opacity="0.28" stroke-width="1"/><path d="M1475.9,360.0 L1469.5,376.5 L1457.4,392.0 L1441.4,405.9 L1423.9,418.2 L1406.7,429.2 L1391.6,439.7 L1379.0,450.2 L1368.9,461.3 L1360.4,473.2 L1352.0,485.6 L1342.7,497.8 L1331.3,509.2 L1317.5,518.8 L1301.4,526.3 L1283.6,531.4 L1265.0,534.6 L1246.3,536.5 L1228.1,538.0 L1210.6,539.9 L1193.5,542.6 L1176.4,546.4 L1159.0,550.8 L1140.8,555.3 L1121.7,559.2 L1101.9,561.9 L1081.7,562.8 L1061.5,561.8 L1041.4,559.2 L1021.5,555.2 L1001.8,550.1 L982.3,544.2 L963.0,537.3 L944.2,529.3 L926.6,519.8 L911.4,508.3 L899.6,494.8 L892.2,479.3 L889.7,462.5 L892.1,445.0 L898.4,427.8 L907.0,411.6 L915.7,396.9 L922.6,383.7 L926.1,371.6 L925.1,360.0 L920.0,348.1 L911.9,335.2 L902.7,321.1 L894.4,305.7 L889.2,289.7 L888.4,273.7 L892.7,258.7 L901.8,245.1 L914.7,233.4 L930.1,223.3 L946.5,214.4 L962.8,206.0 L978.4,197.3 L993.4,188.0 L1008.2,178.1 L1023.5,167.9 L1040.0,158.2 L1057.9,150.0 L1077.3,144.0 L1097.8,140.8 L1118.9,140.6 L1139.8,143.0 L1160.0,147.6 L1179.3,153.5 L1197.6,160.1 L1215.0,166.9 L1231.7,173.8 L1247.7,180.9 L1263.0,188.4 L1277.2,196.7 L1290.3,205.9 L1302.1,215.8 L1312.7,226.1 L1322.9,236.3 L1333.3,246.1 L1345.2,255.0 L1359.3,263.1 L1376.1,271.0 L1395.3,279.1 L1416.0,288.3 L1436.5,299.2 L1454.5,312.1 L1468.1,326.9 L1475.5,343.1 L1475.9,360.0Z" fill="none" stroke="#76D5C7" stroke-opacity="0.27" stroke-width="1"/><path d="M1528.8,360.0 L1519.8,379.2 L1504.9,396.9 L1486.4,413.0 L1466.8,427.3 L1448.4,440.4 L1432.4,453.1 L1419.3,466.1 L1408.4,479.6 L1398.5,493.7 L1388.2,508.1 L1376.2,521.8 L1361.6,534.1 L1344.4,544.3 L1324.9,552.1 L1304.0,557.6 L1282.6,561.3 L1261.4,564.2 L1240.8,567.0 L1220.9,570.5 L1201.2,574.9 L1181.2,580.1 L1160.6,585.4 L1139.1,590.2 L1116.8,593.7 L1094.0,595.4 L1070.8,595.2 L1047.7,593.2 L1024.7,589.7 L1001.6,585.3 L978.3,580.2 L954.8,574.4 L931.1,567.6 L908.0,559.1 L886.8,548.3 L868.7,534.8 L855.4,518.5 L847.9,499.8 L846.7,479.5 L851.1,458.6 L859.7,438.3 L870.2,419.4 L880.0,402.5 L886.9,387.4 L889.1,373.5 L886.2,360.0 L878.8,346.0 L868.5,330.7 L857.8,314.0 L849.1,296.1 L844.5,277.6 L845.4,259.5 L851.9,242.6 L863.4,227.3 L878.6,214.0 L896.0,202.1 L914.0,191.1 L931.7,180.4 L948.8,169.2 L965.6,157.5 L982.7,145.3 L1000.9,133.5 L1020.6,122.8 L1042.2,114.3 L1065.4,108.7 L1089.6,106.2 L1114.1,106.7 L1138.2,109.7 L1161.6,114.5 L1184.0,120.3 L1205.5,126.7 L1226.3,133.3 L1246.3,140.5 L1265.4,148.4 L1283.3,157.5 L1299.6,168.0 L1314.1,179.8 L1326.7,192.5 L1338.0,205.3 L1349.0,217.6 L1361.0,228.9 L1375.3,238.7 L1392.9,247.6 L1414.1,256.0 L1438.1,265.0 L1463.5,275.5 L1487.9,288.2 L1508.6,303.5 L1523.2,321.1 L1530.2,340.3 L1528.8,360.0Z" fill="none" stroke="#76D5C7" stroke-opacity="0.26" stroke-width="1"/><path d="M1580.2,360.0 L1568.6,381.7 L1551.2,401.8 L1530.8,420.0 L1510.0,436.5 L1490.9,451.9 L1474.6,467.0 L1460.9,482.5 L1449.0,498.4 L1437.3,514.6 L1424.5,530.6 L1409.2,545.4 L1391.1,558.4 L1370.3,568.9 L1347.6,577.0 L1323.8,583.0 L1300.0,587.7 L1276.6,592.1 L1253.9,596.8 L1231.5,602.2 L1209.1,608.4 L1186.1,614.7 L1162.3,620.6 L1137.5,625.0 L1112.0,627.6 L1086.2,628.0 L1060.3,626.5 L1034.4,623.5 L1008.4,619.6 L981.9,615.3 L954.6,610.7 L926.6,605.4 L898.3,598.7 L870.9,589.6 L846.0,577.5 L825.6,561.6 L811.4,542.2 L804.5,519.9 L804.9,495.9 L811.5,471.6 L822.3,448.4 L834.2,427.1 L844.5,408.1 L850.6,391.2 L851.1,375.5 L845.8,360.0 L836.0,343.7 L824.0,326.1 L812.5,306.9 L804.1,286.5 L800.8,265.9 L803.7,245.8 L812.5,227.1 L826.2,210.1 L843.2,194.9 L861.9,180.9 L880.9,167.5 L899.7,154.1 L918.2,140.2 L936.9,126.0 L956.6,111.9 L978.0,98.8 L1001.5,87.7 L1026.9,79.4 L1053.9,74.4 L1081.6,72.6 L1109.4,73.7 L1136.7,76.9 L1163.1,81.4 L1188.8,86.6 L1213.7,92.3 L1238.0,98.7 L1261.4,106.1 L1283.5,115.2 L1303.8,126.4 L1321.8,139.6 L1337.2,154.4 L1350.4,170.0 L1362.3,185.4 L1374.3,199.6 L1388.2,211.9 L1405.5,222.5 L1427.3,231.7 L1453.3,240.5 L1482.4,250.4 L1512.4,262.3 L1540.2,277.1 L1562.9,295.0 L1577.8,315.5 L1583.7,337.5 L1580.2,360.0Z" fill="none" stroke="#76D5C7" stroke-opacity="0.38" stroke-width="1.6"/><path d="M1629.9,360.0 L1616.1,384.1 L1596.9,406.5 L1575.3,427.0 L1554.1,445.8 L1534.8,463.8 L1518.3,481.5 L1503.9,499.4 L1490.5,517.6 L1476.4,535.7 L1460.3,552.9 L1441.4,568.4 L1419.5,581.7 L1395.2,592.5 L1369.5,601.1 L1343.3,608.0 L1317.4,614.3 L1292.2,620.6 L1267.4,627.6 L1242.6,635.1 L1217.3,642.9 L1191.2,650.1 L1163.9,655.8 L1135.9,659.4 L1107.4,660.5 L1078.7,659.4 L1050.2,656.6 L1021.5,653.0 L992.3,649.1 L962.0,645.5 L930.4,641.8 L897.5,637.3 L864.4,630.8 L832.7,621.0 L804.6,607.0 L782.4,588.5 L768.0,565.6 L762.2,539.5 L764.5,511.8 L773.4,484.2 L785.9,458.2 L798.7,434.6 L808.6,413.8 L813.2,395.1 L811.4,377.5 L803.7,360.0 L791.9,341.4 L778.7,321.3 L767.2,299.7 L759.9,277.1 L758.5,254.4 L763.5,232.5 L774.4,212.1 L789.8,193.3 L808.0,175.9 L827.4,159.5 L847.1,143.3 L866.7,126.9 L886.6,110.3 L907.5,93.7 L930.2,78.0 L955.2,64.2 L982.7,53.2 L1012.1,45.5 L1042.7,41.3 L1073.9,40.2 L1104.8,41.5 L1135.1,44.2 L1164.7,47.8 L1193.7,51.9 L1222.2,56.7 L1250.0,62.8 L1276.8,70.9 L1301.8,81.7 L1324.2,95.4 L1343.5,111.8 L1359.5,129.9 L1373.1,148.5 L1385.6,166.2 L1399.0,181.9 L1415.4,195.1 L1436.4,205.9 L1462.8,215.2 L1494.0,224.5 L1528.2,235.3 L1562.3,248.8 L1592.9,265.9 L1616.7,286.5 L1631.3,309.9 L1635.6,334.8 L1629.9,360.0Z" fill="none" stroke="#76D5C7" stroke-opacity="0.23" stroke-width="1"/><path d="M1677.9,360.0 L1662.5,386.5 L1642.3,411.3 L1620.5,434.1 L1599.4,455.5 L1580.4,476.0 L1563.6,496.4 L1548.1,516.8 L1532.4,537.0 L1515.2,556.5 L1495.3,574.6 L1472.3,590.6 L1446.7,604.1 L1419.2,615.2 L1390.9,624.6 L1362.8,633.0 L1335.3,641.4 L1308.3,650.2 L1281.4,659.6 L1254.1,669.3 L1225.8,678.4 L1196.2,685.8 L1165.6,690.8 L1134.3,692.9 L1102.9,692.2 L1071.6,689.5 L1040.4,685.7 L1008.8,681.9 L976.2,678.7 L941.7,676.3 L905.3,673.9 L867.4,670.3 L829.5,663.9 L793.8,653.0 L763.0,636.8 L739.7,615.0 L725.6,588.4 L721.3,558.4 L725.8,527.1 L736.5,496.4 L750.2,467.8 L763.0,442.2 L771.6,419.6 L774.1,399.1 L769.8,379.7 L759.9,360.0 L746.7,339.1 L733.2,316.6 L722.6,292.7 L717.0,268.0 L717.8,243.5 L725.0,219.8 L737.5,197.5 L753.9,176.7 L772.5,156.8 L792.0,137.5 L812.0,118.2 L832.4,98.7 L854.0,79.4 L877.6,60.9 L903.8,44.1 L932.8,30.2 L964.4,19.7 L997.8,12.9 L1032.0,9.5 L1066.4,8.7 L1100.3,9.5 L1133.6,11.2 L1166.3,13.3 L1198.8,15.9 L1231.0,19.8 L1262.5,25.9 L1292.5,35.1 L1320.0,48.2 L1344.2,65.1 L1364.3,85.0 L1380.8,106.6 L1394.7,128.0 L1408.1,147.7 L1423.4,164.4 L1442.9,177.9 L1468.3,188.7 L1499.8,198.1 L1536.3,207.8 L1575.2,219.8 L1612.8,235.2 L1645.4,254.8 L1669.6,278.2 L1683.2,304.5 L1685.6,332.3 L1677.9,360.0Z" fill="none" stroke="#76D5C7" stroke-opacity="0.22" stroke-width="1"/><path d="M1724.7,360.0 L1708.4,388.9 L1688.2,416.0 L1667.0,441.4 L1646.6,465.5 L1627.9,488.8 L1610.4,511.8 L1593.0,534.5 L1574.3,556.4 L1553.2,577.0 L1529.0,595.5 L1501.9,611.7 L1472.6,625.4 L1442.4,637.2 L1412.2,647.9 L1382.6,658.4 L1353.7,669.4 L1325.1,681.1 L1296.1,693.1 L1266.0,704.5 L1234.3,714.3 L1201.3,721.3 L1167.2,724.9 L1132.8,725.0 L1098.6,722.4 L1064.7,718.3 L1030.9,713.9 L996.2,710.6 L959.8,708.8 L920.8,708.1 L879.3,707.3 L836.3,704.5 L793.8,697.8 L754.5,685.3 L721.7,666.4 L697.9,641.0 L684.8,610.4 L682.2,576.5 L688.5,541.8 L700.6,508.2 L714.5,477.4 L726.4,450.0 L733.1,425.6 L733.1,403.4 L726.5,381.9 L714.9,360.0 L701.1,336.7 L688.3,311.9 L679.3,285.9 L675.9,259.3 L679.0,233.0 L687.9,207.6 L701.4,183.3 L718.0,160.0 L736.2,137.3 L755.4,114.7 L775.5,92.1 L797.0,69.6 L820.7,47.8 L847.5,27.8 L877.7,10.6 L911.0,-2.9 L946.8,-12.5 L984.0,-18.3 L1021.7,-21.3 L1059.0,-22.3 L1095.7,-22.6 L1132.0,-22.6 L1168.0,-22.5 L1204.1,-21.5 L1240.1,-18.4 L1275.2,-11.8 L1308.2,-0.8 L1338.0,15.3 L1363.5,35.8 L1384.2,59.5 L1401.0,84.4 L1415.4,108.3 L1430.2,129.5 L1448.1,146.8 L1471.5,160.2 L1501.7,170.7 L1538.5,180.2 L1580.1,190.6 L1623.1,204.0 L1663.4,221.6 L1697.1,243.8 L1720.9,270.1 L1733.1,299.3 L1733.8,329.8 L1724.7,360.0Z" fill="none" stroke="#76D5C7" stroke-opacity="0.21" stroke-width="1"/><path d="M1770.6,360.0 L1754.6,391.3 L1735.3,420.9 L1715.3,449.0 L1695.8,475.9 L1677.0,502.1 L1658.2,527.6 L1638.1,552.2 L1615.6,575.5 L1589.9,596.7 L1561.1,615.5 L1529.9,631.8 L1497.6,646.0 L1465.2,658.9 L1433.6,671.5 L1403.0,684.6 L1373.0,698.7 L1342.7,713.4 L1311.3,727.7 L1278.1,740.5 L1242.9,750.3 L1206.2,756.2 L1168.8,757.8 L1131.3,755.7 L1094.5,751.2 L1058.1,746.0 L1021.5,741.9 L983.4,739.8 L942.8,739.9 L899.0,741.2 L852.3,742.0 L804.2,739.8 L757.4,732.2 L715.3,717.6 L681.1,695.4 L657.5,666.1 L645.6,631.5 L644.7,593.9 L652.3,556.0 L664.9,520.0 L678.2,487.2 L688.4,458.1 L692.7,432.0 L690.1,407.9 L681.5,384.3 L669.0,360.0 L655.7,334.4 L644.5,307.4 L637.8,279.3 L636.9,251.0 L641.9,223.0 L651.8,195.7 L665.5,169.2 L681.3,143.1 L698.6,117.1 L717.2,91.0 L737.5,64.9 L760.5,39.5 L787.0,15.9 L817.6,-5.0 L852.2,-22.0 L890.1,-34.7 L930.1,-43.2 L970.9,-48.3 L1011.6,-51.2 L1051.6,-53.3 L1091.1,-55.4 L1130.3,-57.7 L1169.8,-59.8 L1209.6,-60.3 L1249.4,-57.6 L1288.0,-49.9 L1323.8,-36.3 L1355.5,-16.7 L1381.9,7.8 L1403.1,35.3 L1420.2,63.3 L1435.6,89.2 L1452.4,111.2 L1473.5,128.6 L1501.4,141.6 L1536.8,151.8 L1578.9,161.5 L1625.0,172.9 L1671.3,188.1 L1713.4,208.1 L1747.3,233.1 L1770.2,262.4 L1781.0,294.3 L1780.4,327.3 L1770.6,360.0Z" fill="none" stroke="#76D5C7" stroke-opacity="0.32" stroke-width="1.6"/><path d="M1816.5,360.0 L1801.7,393.8 L1784.2,426.0 L1765.8,457.0 L1747.0,486.8 L1727.6,515.7 L1706.6,543.6 L1682.8,569.8 L1655.5,594.0 L1624.8,615.5 L1591.5,634.4 L1556.7,650.9 L1521.9,665.9 L1488.1,680.5 L1455.7,695.7 L1424.4,712.1 L1393.3,729.5 L1361.1,747.1 L1327.0,763.4 L1290.3,776.8 L1251.4,785.8 L1211.0,789.8 L1170.2,789.0 L1130.0,784.7 L1090.6,778.7 L1051.6,773.2 L1012.0,769.9 L970.3,769.8 L925.1,772.3 L876.2,775.8 L824.2,778.0 L771.4,775.8 L720.9,766.8 L676.6,749.5 L641.8,723.6 L618.8,690.2 L608.1,651.6 L608.5,610.6 L616.8,570.0 L629.0,531.8 L640.7,497.3 L648.4,466.5 L650.0,438.7 L645.2,412.5 L635.4,386.7 L623.1,360.0 L611.2,332.1 L602.4,303.0 L598.4,273.2 L599.8,243.1 L606.2,213.4 L616.3,184.0 L629.1,154.8 L643.5,125.5 L659.4,95.9 L677.3,66.2 L698.2,36.8 L723.3,9.0 L753.3,-16.1 L788.4,-37.1 L827.7,-53.5 L870.1,-65.0 L914.1,-72.5 L958.2,-77.3 L1001.6,-80.9 L1044.1,-84.7 L1086.2,-89.3 L1128.6,-94.4 L1171.6,-98.8 L1215.3,-100.5 L1258.9,-97.4 L1300.7,-87.8 L1339.0,-71.0 L1372.2,-47.4 L1399.3,-18.7 L1420.9,12.4 L1438.7,42.9 L1455.7,70.2 L1475.1,92.5 L1500.2,109.5 L1533.0,122.0 L1573.6,132.0 L1620.6,142.2 L1670.5,155.0 L1719.2,172.3 L1762.1,195.0 L1795.5,222.9 L1817.3,254.9 L1827.0,289.5 L1825.9,325.0 L1816.5,360.0Z" fill="none" stroke="#76D5C7" stroke-opacity="0.18" stroke-width="1"/><path d="M1863.1,360.0 L1850.5,396.3 L1835.4,431.3 L1818.5,465.3 L1800.0,498.1 L1779.1,529.6 L1754.8,559.4 L1726.3,587.0 L1693.7,611.7 L1657.9,633.3 L1620.2,652.3 L1582.4,669.3 L1545.9,685.7 L1511.4,702.7 L1478.8,721.1 L1447.0,741.0 L1414.6,761.8 L1380.2,782.0 L1342.8,799.6 L1302.4,812.8 L1259.6,820.3 L1215.5,821.9 L1171.6,818.5 L1128.7,812.1 L1086.8,805.2 L1045.2,800.2 L1002.3,798.7 L956.5,801.1 L906.6,806.3 L852.4,812.0 L795.4,815.0 L738.2,812.2 L684.8,801.1 L638.9,780.4 L604.0,750.6 L581.8,713.1 L572.3,670.9 L573.3,626.9 L581.3,584.0 L592.0,544.0 L601.2,508.0 L606.1,475.5 L605.1,445.8 L598.8,417.4 L588.8,389.1 L577.9,360.0 L568.5,329.9 L562.7,298.9 L561.4,267.3 L564.6,235.7 L571.4,204.0 L580.7,172.2 L591.5,140.0 L603.8,107.2 L618.1,73.8 L635.7,40.3 L657.9,8.0 L686.0,-21.7 L720.2,-47.5 L760.1,-68.2 L804.4,-83.4 L851.2,-93.8 L898.7,-100.7 L945.7,-105.8 L991.5,-110.9 L1036.4,-117.2 L1081.2,-124.9 L1126.8,-132.9 L1173.5,-139.3 L1221.2,-141.6 L1268.4,-137.3 L1313.3,-125.0 L1353.7,-104.3 L1388.0,-76.4 L1415.8,-43.7 L1438.0,-9.5 L1456.9,22.9 L1476.0,50.9 L1498.9,73.0 L1528.5,89.2 L1566.4,101.2 L1612.0,111.3 L1663.2,122.4 L1716.1,137.0 L1766.1,156.8 L1808.9,182.3 L1841.5,213.1 L1862.3,247.9 L1871.5,284.9 L1870.9,322.7 L1863.1,360.0Z" fill="none" stroke="#76D5C7" stroke-opacity="0.17" stroke-width="1"/><path d="M1911.1,360.0 L1901.6,398.9 L1889.0,436.9 L1873.5,473.9 L1854.4,509.6 L1830.8,543.5 L1802.0,575.0 L1768.1,603.4 L1729.8,628.4 L1689.0,650.1 L1647.6,669.3 L1607.7,687.4 L1570.3,705.8 L1535.8,725.8 L1503.2,747.8 L1470.8,771.6 L1436.8,795.6 L1399.7,817.8 L1358.7,835.9 L1314.3,848.0 L1267.4,853.3 L1219.8,852.1 L1172.9,846.3 L1127.4,838.4 L1083.1,831.4 L1038.7,827.7 L992.2,828.7 L942.0,834.1 L887.1,842.0 L827.7,849.4 L766.0,852.7 L705.2,848.5 L649.4,834.6 L602.7,810.2 L568.1,776.3 L546.7,735.0 L537.7,689.5 L538.4,643.1 L545.0,598.3 L553.3,556.8 L559.5,519.2 L561.4,485.0 L558.4,453.1 L551.5,422.3 L542.6,391.5 L534.1,360.0 L528.0,327.8 L525.4,295.0 L526.6,261.8 L530.7,228.5 L536.8,194.7 L544.1,160.2 L552.2,124.6 L562.0,87.9 L575.0,50.5 L592.8,13.7 L617.1,-21.2 L648.9,-52.2 L688.0,-78.0 L733.2,-97.8 L782.3,-111.8 L833.2,-121.2 L883.9,-127.9 L933.2,-134.2 L981.1,-141.7 L1028.3,-151.2 L1075.9,-162.3 L1124.9,-173.1 L1175.5,-181.0 L1227.1,-183.0 L1277.8,-176.8 L1325.4,-161.0 L1367.5,-136.0 L1402.9,-103.7 L1431.4,-67.3 L1454.5,-30.6 L1475.2,2.9 L1497.2,30.8 L1524.1,52.2 L1558.6,67.7 L1601.5,79.4 L1651.7,90.0 L1706.2,102.6 L1760.9,119.4 L1811.2,141.9 L1853.4,170.3 L1885.1,203.9 L1905.3,241.1 L1915.1,280.4 L1916.2,320.3 L1911.1,360.0Z" fill="none" stroke="#76D5C7" stroke-opacity="0.16" stroke-width="1"/><path d="M1961.3,360.0 L1955.3,401.7 L1945.2,442.8 L1930.2,482.8 L1909.3,521.3 L1881.9,557.3 L1847.6,590.1 L1807.6,619.0 L1763.6,644.0 L1718.3,665.8 L1674.1,685.8 L1633.0,705.5 L1595.6,726.6 L1561.6,750.2 L1529.0,776.3 L1495.8,803.7 L1459.8,830.5 L1419.4,853.9 L1374.4,871.6 L1325.6,881.8 L1274.8,884.4 L1223.8,880.4 L1174.2,872.5 L1126.2,863.9 L1079.4,857.7 L1031.8,856.3 L981.5,860.5 L926.7,869.0 L866.7,879.4 L802.4,887.9 L736.4,890.6 L672.7,884.2 L615.3,866.9 L568.3,838.5 L534.0,800.6 L513.0,755.9 L503.7,707.8 L503.2,659.4 L507.3,613.1 L512.3,570.3 L515.2,531.1 L514.6,495.0 L510.4,460.7 L504.1,427.2 L497.5,393.8 L492.5,360.0 L490.1,325.8 L490.7,291.4 L493.5,256.6 L497.4,221.4 L501.6,185.2 L505.8,147.6 L510.7,108.2 L518.0,67.5 L530.0,26.3 L548.9,-13.6 L576.4,-50.3 L612.8,-81.9 L657.3,-107.2 L707.7,-125.7 L761.4,-138.5 L815.9,-147.4 L869.2,-154.9 L920.5,-163.2 L970.3,-173.9 L1019.8,-187.1 L1070.3,-201.6 L1122.9,-214.8 L1177.5,-223.5 L1232.9,-224.3 L1286.9,-215.1 L1336.9,-195.2 L1380.6,-165.7 L1416.9,-129.3 L1446.3,-90.0 L1470.8,-51.6 L1494.0,-17.8 L1519.6,9.6 L1551.1,30.0 L1590.6,44.8 L1638.1,56.6 L1692.0,68.3 L1748.8,82.8 L1804.2,102.3 L1854.1,127.8 L1895.4,159.0 L1926.5,195.1 L1947.1,234.5 L1958.6,275.8 L1962.7,317.9 L1961.3,360.0Z" fill="none" stroke="#76D5C7" stroke-opacity="0.26" stroke-width="1.6"/><path d="M424.4,820.0 L425.2,822.3 L425.4,824.7 L424.8,827.1 L423.5,829.2 L421.6,831.2 L419.3,833.0 L417.0,834.6 L414.9,836.2 L413.1,837.8 L411.8,839.8 L410.7,842.0 L409.7,844.5 L408.6,847.2 L407.2,849.9 L405.2,852.4 L402.7,854.5 L399.7,856.2 L396.3,857.2 L392.7,857.7 L389.0,857.7 L385.3,857.3 L381.7,856.6 L378.3,855.8 L375.1,854.8 L372.0,853.7 L369.1,852.5 L366.4,851.1 L363.9,849.5 L361.7,847.8 L359.7,846.1 L357.8,844.4 L355.9,842.9 L353.8,841.5 L351.5,840.4 L348.7,839.4 L345.6,838.5 L342.3,837.4 L339.0,836.1 L336.0,834.5 L333.5,832.5 L331.9,830.2 L331.0,827.7 L331.0,825.1 L331.7,822.5 L332.6,820.0 L333.7,817.6 L334.5,815.3 L335.0,812.9 L335.3,810.5 L335.3,808.0 L335.5,805.3 L335.9,802.7 L337.0,800.1 L338.9,797.9 L341.5,796.0 L344.7,794.7 L348.3,793.9 L352.1,793.6 L355.9,793.5 L359.3,793.5 L362.5,793.4 L365.3,793.1 L368.0,792.5 L370.5,791.7 L373.0,790.7 L375.7,789.7 L378.5,788.7 L381.5,787.8 L384.7,787.2 L387.9,786.8 L391.3,786.5 L394.7,786.4 L398.3,786.5 L401.9,786.7 L405.6,787.2 L409.1,788.0 L412.4,789.3 L415.2,791.0 L417.5,793.2 L419.0,795.7 L419.9,798.5 L420.2,801.4 L420.1,804.2 L419.9,806.9 L419.8,809.3 L420.1,811.5 L420.8,813.6 L421.9,815.6 L423.2,817.8 L424.4,820.0Z" fill="none" stroke="#76D5C7" stroke-opacity="0.33" stroke-width="1"/><path d="M469.9,820.0 L471.1,824.7 L471.0,829.5 L469.3,834.1 L466.2,838.3 L462.1,842.1 L457.7,845.6 L453.3,848.9 L449.5,852.2 L446.4,855.7 L444.1,859.8 L442.1,864.4 L440.2,869.5 L437.9,874.9 L434.7,880.1 L430.5,884.8 L425.3,888.8 L419.1,891.7 L412.3,893.7 L405.1,894.6 L397.8,894.8 L390.6,894.4 L383.5,893.4 L376.6,892.1 L370.0,890.4 L363.7,888.3 L357.9,885.7 L352.6,882.6 L347.8,879.1 L343.6,875.3 L339.8,871.6 L336.2,868.1 L332.4,865.1 L328.1,862.7 L323.1,860.7 L317.2,859.0 L310.7,857.3 L303.8,855.3 L297.1,852.7 L291.2,849.3 L286.7,845.2 L283.8,840.4 L282.7,835.3 L283.0,830.1 L284.4,825.0 L286.3,820.0 L288.0,815.2 L289.2,810.5 L289.7,805.8 L289.7,800.8 L289.6,795.6 L289.9,790.3 L291.2,785.0 L293.8,780.1 L297.9,775.8 L303.4,772.4 L310.1,770.0 L317.4,768.5 L324.8,767.7 L332.0,767.3 L338.7,767.0 L344.8,766.5 L350.3,765.6 L355.6,764.3 L360.7,762.7 L365.9,760.9 L371.4,759.1 L377.1,757.5 L383.0,756.2 L389.2,755.2 L395.6,754.3 L402.3,753.7 L409.3,753.2 L416.6,753.0 L424.1,753.1 L431.6,753.8 L438.8,755.4 L445.4,758.0 L451.0,761.6 L455.2,766.2 L457.9,771.6 L459.2,777.4 L459.5,783.2 L459.2,788.8 L458.9,794.0 L459.2,798.6 L460.3,802.9 L462.2,807.1 L464.8,811.2 L467.6,815.5 L469.9,820.0Z" fill="none" stroke="#76D5C7" stroke-opacity="0.32" stroke-width="1"/><path d="M516.0,820.0 L517.2,827.1 L516.2,834.2 L513.0,840.9 L507.9,847.2 L501.7,852.8 L495.2,858.0 L489.2,863.0 L484.1,868.2 L480.2,873.9 L477.1,880.3 L474.4,887.5 L471.4,895.2 L467.5,903.0 L462.3,910.4 L455.6,917.0 L447.4,922.4 L438.1,926.5 L428.0,929.4 L417.4,931.0 L406.6,931.7 L395.8,931.6 L385.2,930.7 L374.9,929.2 L364.8,926.8 L355.4,923.5 L346.6,919.2 L338.7,914.0 L331.9,908.2 L325.9,902.2 L320.5,896.4 L315.1,891.2 L309.4,887.0 L302.6,883.7 L294.5,881.1 L285.1,879.0 L274.8,876.6 L264.3,873.6 L254.3,869.5 L245.9,864.2 L239.8,857.8 L236.3,850.5 L235.2,842.8 L236.1,835.0 L238.2,827.3 L240.6,820.0 L242.5,812.9 L243.5,805.8 L243.6,798.5 L243.2,790.9 L242.9,783.0 L243.6,775.0 L246.0,767.2 L250.6,760.1 L257.4,754.0 L266.1,749.2 L276.3,745.8 L287.1,743.6 L297.9,742.2 L308.3,741.3 L317.9,740.3 L326.7,739.1 L334.9,737.4 L342.9,735.3 L350.7,733.1 L358.8,730.8 L367.0,728.7 L375.6,726.9 L384.5,725.3 L393.6,723.9 L403.2,722.6 L413.2,721.3 L423.8,720.0 L435.0,719.1 L446.6,718.9 L458.2,719.7 L469.1,722.1 L478.9,726.2 L486.9,732.1 L492.6,739.4 L496.1,747.8 L497.6,756.7 L497.8,765.5 L497.5,773.7 L497.5,781.2 L498.6,788.0 L501.0,794.3 L504.6,800.4 L508.8,806.6 L512.9,813.1 L516.0,820.0Z" fill="none" stroke="#76D5C7" stroke-opacity="0.30" stroke-width="1"/><path d="M562.4,820.0 L563.0,829.5 L560.7,838.8 L555.6,847.6 L548.4,855.8 L540.3,863.2 L532.3,870.2 L525.1,877.2 L519.3,884.5 L514.8,892.5 L511.0,901.4 L507.4,911.1 L503.0,921.2 L497.2,931.2 L489.7,940.4 L480.2,948.6 L469.1,955.3 L456.7,960.6 L443.3,964.4 L429.5,967.0 L415.4,968.6 L401.2,969.2 L387.0,968.8 L373.1,967.2 L359.6,964.0 L346.9,959.2 L335.3,952.9 L325.1,945.2 L316.3,936.8 L308.7,928.3 L301.7,920.5 L294.6,913.8 L286.6,908.6 L276.9,904.8 L265.4,902.0 L252.2,899.4 L238.0,896.4 L223.9,892.3 L211.1,886.5 L200.6,879.1 L193.4,870.3 L189.7,860.4 L188.9,850.1 L190.3,839.7 L192.8,829.7 L195.2,820.0 L196.7,810.5 L197.0,801.0 L196.4,791.1 L195.4,780.8 L195.2,770.2 L196.8,759.6 L200.9,749.5 L207.9,740.3 L217.7,732.6 L229.8,726.6 L243.3,722.2 L257.3,719.1 L271.2,716.8 L284.3,715.0 L296.6,713.0 L308.1,710.9 L319.1,708.4 L329.9,705.7 L340.7,703.1 L351.6,700.8 L362.8,698.7 L374.2,697.0 L385.9,695.3 L397.9,693.5 L410.6,691.4 L424.1,689.0 L438.5,686.5 L453.8,684.6 L469.6,683.8 L485.3,684.9 L499.9,688.3 L512.6,694.2 L522.6,702.7 L529.6,713.0 L533.5,724.6 L535.1,736.5 L535.3,748.1 L535.3,758.8 L536.1,768.5 L538.5,777.3 L542.6,785.5 L548.1,793.5 L554.0,801.9 L559.1,810.7 L562.4,820.0Z" fill="none" stroke="#76D5C7" stroke-opacity="0.44" stroke-width="1.6"/><path d="M608.6,820.0 L608.1,831.8 L604.0,843.3 L596.9,854.2 L587.9,864.2 L578.3,873.5 L569.3,882.4 L561.5,891.5 L555.3,901.2 L550.4,911.7 L545.9,923.1 L541.0,935.2 L534.9,947.4 L526.8,959.2 L516.6,970.0 L504.3,979.5 L490.2,987.4 L474.8,993.9 L458.5,999.0 L441.6,1003.1 L424.3,1006.0 L406.6,1007.7 L388.9,1007.8 L371.2,1006.0 L354.2,1001.8 L338.3,995.1 L324.0,986.3 L311.7,975.8 L301.2,964.5 L292.0,953.6 L283.4,943.9 L274.3,936.0 L263.7,930.3 L250.8,926.3 L235.5,923.3 L218.4,920.5 L200.3,916.7 L182.9,911.2 L167.7,903.6 L155.8,893.9 L148.0,882.6 L144.2,870.1 L143.8,857.2 L145.4,844.4 L147.8,832.0 L149.6,820.0 L150.2,808.1 L149.4,796.0 L147.9,783.5 L146.7,770.4 L147.0,757.2 L150.0,744.1 L156.3,731.9 L166.1,721.0 L179.0,711.8 L194.3,704.6 L210.9,699.0 L227.7,694.7 L244.2,691.3 L259.9,688.1 L274.8,685.0 L289.0,681.8 L302.9,678.6 L316.7,675.7 L330.6,673.2 L344.6,671.2 L358.7,669.6 L372.8,668.0 L387.3,666.2 L402.2,663.6 L418.0,660.3 L435.1,656.4 L453.5,652.4 L473.1,649.3 L493.2,648.0 L512.9,649.4 L531.0,654.2 L546.3,662.4 L557.9,673.6 L565.7,687.2 L570.0,701.9 L571.7,716.9 L572.2,731.1 L572.9,744.0 L575.1,755.7 L579.3,766.3 L585.5,776.4 L592.8,786.5 L600.0,797.1 L605.7,808.3 L608.6,820.0Z" fill="none" stroke="#76D5C7" stroke-opacity="0.28" stroke-width="1"/><path d="M654.1,820.0 L651.9,834.1 L645.9,847.7 L637.1,860.5 L626.7,872.4 L616.2,883.7 L606.7,894.8 L598.9,906.2 L592.5,918.4 L587.0,931.4 L581.5,945.3 L575.0,959.5 L566.6,973.5 L555.9,986.8 L542.8,998.8 L527.7,1009.4 L510.8,1018.7 L492.7,1026.7 L473.7,1033.6 L453.9,1039.6 L433.4,1044.2 L412.2,1047.2 L390.7,1047.8 L369.4,1045.5 L348.8,1039.8 L329.8,1030.8 L313.0,1019.0 L298.7,1005.4 L286.5,991.3 L275.9,978.1 L265.5,966.9 L254.0,958.3 L240.4,952.3 L223.9,948.4 L204.7,945.4 L183.5,942.1 L161.9,937.4 L141.7,930.3 L124.6,920.6 L111.8,908.5 L103.8,894.5 L100.1,879.5 L99.7,864.1 L101.1,849.0 L102.6,834.4 L103.3,820.0 L102.5,805.6 L100.5,790.9 L98.3,775.6 L97.2,759.9 L98.6,744.1 L103.6,728.8 L112.5,714.7 L125.4,702.1 L141.4,691.6 L159.6,683.0 L178.8,676.1 L198.0,670.3 L216.8,665.2 L234.8,660.6 L252.3,656.1 L269.4,652.0 L286.4,648.4 L303.5,645.6 L320.7,643.7 L337.7,642.4 L354.7,641.4 L371.5,640.1 L388.6,637.7 L406.4,634.0 L425.5,629.0 L446.3,623.1 L468.9,617.4 L492.9,613.1 L517.3,611.4 L540.9,613.6 L562.1,620.1 L579.5,630.8 L592.5,645.2 L600.9,662.0 L605.4,679.9 L607.5,697.5 L608.8,714.1 L610.9,729.0 L615.0,742.5 L621.3,754.9 L629.6,767.0 L638.5,779.3 L646.5,792.3 L652.1,805.9 L654.1,820.0Z" fill="none" stroke="#76D5C7" stroke-opacity="0.27" stroke-width="1"/><path d="M698.3,820.0 L694.3,836.3 L686.5,851.9 L676.3,866.6 L665.1,880.6 L654.4,894.0 L645.1,907.4 L637.4,921.4 L630.9,936.1 L624.6,951.7 L617.6,967.7 L608.9,983.7 L597.8,999.2 L584.2,1013.6 L568.2,1026.7 L550.4,1038.6 L531.0,1049.4 L510.6,1059.4 L489.0,1068.6 L466.4,1076.8 L442.7,1083.5 L418.0,1087.7 L392.7,1088.6 L367.5,1085.4 L343.4,1077.7 L321.5,1065.8 L302.3,1050.8 L286.1,1034.0 L272.4,1017.3 L260.1,1002.2 L247.6,989.9 L233.4,981.0 L216.4,975.1 L196.1,971.3 L172.8,968.2 L147.9,964.3 L123.2,958.2 L100.8,949.2 L82.4,937.2 L69.0,922.6 L60.9,906.0 L57.1,888.6 L56.3,871.0 L56.7,853.7 L56.8,836.7 L55.7,820.0 L53.3,803.1 L50.2,785.7 L47.7,767.7 L47.4,749.4 L50.6,731.2 L58.1,713.8 L70.0,697.9 L85.9,683.9 L104.8,671.9 L125.4,661.7 L146.6,653.1 L167.8,645.4 L188.5,638.5 L208.9,632.1 L229.1,626.3 L249.3,621.6 L269.8,618.0 L290.5,615.9 L311.0,615.0 L331.1,614.7 L350.8,614.3 L370.2,612.9 L389.9,609.7 L410.6,604.3 L433.1,597.1 L457.8,588.9 L484.7,581.3 L513.1,575.9 L541.8,574.3 L568.9,577.7 L592.8,586.3 L612.0,600.0 L626.1,617.6 L635.0,637.6 L640.1,658.3 L643.1,678.4 L645.7,697.0 L649.8,713.8 L656.1,728.9 L664.7,743.2 L674.9,757.4 L684.9,772.0 L693.1,787.4 L697.9,803.5 L698.3,820.0Z" fill="none" stroke="#76D5C7" stroke-opacity="0.26" stroke-width="1"/><path d="M741.0,820.0 L735.2,838.4 L726.0,856.0 L715.0,872.7 L703.8,888.8 L693.6,904.5 L684.8,920.5 L677.3,937.1 L670.4,954.4 L662.9,972.2 L653.8,990.2 L642.3,1007.6 L628.1,1024.1 L611.5,1039.5 L592.8,1053.7 L572.5,1067.0 L551.1,1079.8 L528.5,1092.3 L504.7,1104.3 L479.3,1115.1 L452.3,1123.9 L423.9,1129.2 L394.6,1129.9 L365.6,1125.2 L338.1,1115.0 L313.4,1099.9 L292.0,1081.5 L274.0,1061.6 L258.6,1042.5 L244.4,1026.0 L229.5,1013.1 L212.2,1004.3 L191.5,998.7 L167.2,995.1 L140.0,991.7 L111.8,986.7 L84.6,979.0 L60.6,967.9 L41.4,953.4 L27.7,936.2 L19.4,917.2 L15.1,897.5 L13.1,877.8 L11.8,858.3 L9.8,839.2 L6.6,820.0 L2.6,800.5 L-1.3,780.3 L-3.3,759.6 L-2.1,738.8 L3.5,718.5 L13.9,699.3 L28.9,681.7 L47.6,666.1 L68.8,652.5 L91.2,640.5 L114.0,629.7 L136.7,619.9 L159.3,610.8 L182.1,602.7 L205.3,595.9 L229.1,590.9 L253.4,587.9 L277.7,586.9 L301.7,587.3 L324.8,588.1 L347.1,588.2 L369.0,586.3 L391.2,581.6 L414.9,574.0 L440.9,564.2 L469.7,553.6 L501.0,544.3 L533.7,538.1 L566.3,537.0 L596.7,542.0 L622.9,553.3 L643.7,570.0 L658.6,590.8 L668.3,613.8 L674.4,637.0 L678.7,659.2 L683.4,679.6 L689.8,698.0 L698.6,714.9 L709.5,731.2 L721.0,747.6 L731.5,764.7 L739.1,782.6 L742.5,801.2 L741.0,820.0Z" fill="none" stroke="#76D5C7" stroke-opacity="0.38" stroke-width="1.6"/><path d="M782.1,820.0 L774.7,840.4 L764.7,860.0 L753.8,878.9 L743.3,897.2 L734.0,915.5 L726.0,934.1 L718.7,953.4 L710.8,973.1 L701.4,993.0 L689.5,1012.4 L674.8,1030.9 L657.4,1048.2 L637.8,1064.4 L616.6,1079.9 L594.4,1095.0 L571.2,1110.4 L546.8,1125.9 L520.8,1141.0 L492.6,1154.7 L462.2,1165.3 L429.9,1171.4 L396.6,1171.4 L363.8,1164.6 L333.0,1151.4 L305.5,1132.8 L282.1,1111.0 L262.3,1088.4 L245.1,1067.4 L228.6,1050.0 L210.8,1037.1 L190.1,1028.5 L165.5,1023.3 L137.3,1019.6 L106.7,1015.5 L75.6,1009.2 L46.5,999.5 L21.5,985.9 L1.8,968.9 L-12.1,949.3 L-21.1,928.1 L-26.6,906.4 L-30.5,884.6 L-34.2,863.1 L-38.7,841.7 L-44.1,820.0 L-49.5,797.8 L-53.5,774.9 L-54.4,751.6 L-50.9,728.5 L-42.3,706.1 L-28.7,685.2 L-10.8,666.1 L10.2,648.8 L33.0,633.2 L56.6,619.0 L80.5,605.8 L104.6,593.4 L129.1,582.1 L154.6,572.5 L181.3,565.0 L209.0,560.3 L237.3,558.4 L265.5,558.9 L292.8,560.8 L318.7,562.6 L343.5,562.7 L367.7,559.7 L392.6,553.0 L419.3,542.7 L449.0,530.1 L481.9,517.1 L517.6,506.3 L554.6,500.0 L590.8,499.9 L623.9,507.1 L652.1,521.2 L674.2,541.1 L690.2,564.8 L701.0,590.4 L708.5,615.8 L715.0,639.7 L722.2,661.6 L731.3,681.6 L742.7,700.4 L755.3,718.8 L767.6,737.7 L777.7,757.4 L784.0,777.9 L785.4,799.0 L782.1,820.0Z" fill="none" stroke="#76D5C7" stroke-opacity="0.23" stroke-width="1"/><path d="M821.5,820.0 L813.2,842.4 L803.2,864.1 L793.2,885.1 L784.2,905.8 L776.2,926.8 L768.9,948.3 L761.1,970.1 L751.7,992.1 L739.6,1013.5 L724.4,1034.1 L706.1,1053.3 L685.4,1071.3 L663.1,1088.4 L640.0,1105.5 L616.2,1123.0 L591.7,1141.5 L565.7,1160.4 L537.5,1179.0 L506.4,1195.4 L472.3,1207.7 L435.9,1213.9 L398.5,1212.5 L361.9,1203.1 L328.0,1186.5 L298.0,1164.3 L272.5,1139.4 L250.8,1114.5 L231.5,1092.3 L212.4,1074.6 L191.4,1062.0 L167.0,1053.9 L138.6,1048.9 L106.7,1044.8 L73.1,1039.6 L39.9,1031.4 L9.6,1019.3 L-16.1,1003.3 L-36.1,983.9 L-50.7,962.0 L-60.9,938.9 L-68.5,915.3 L-75.1,891.7 L-81.8,868.1 L-89.2,844.3 L-96.5,820.0 L-102.6,795.0 L-105.8,769.4 L-104.7,743.7 L-98.3,718.4 L-86.4,694.2 L-69.7,671.7 L-49.4,650.9 L-26.8,631.7 L-3.0,613.9 L21.2,597.0 L45.8,580.9 L71.2,565.9 L98.0,552.6 L126.6,541.7 L157.2,534.1 L189.2,530.3 L221.8,530.0 L253.8,532.3 L284.3,535.6 L312.9,538.0 L339.9,537.6 L366.5,532.9 L394.0,523.5 L424.0,510.2 L457.4,494.7 L494.6,479.6 L534.5,467.8 L575.3,461.9 L614.8,463.4 L650.4,473.1 L680.3,490.2 L703.7,513.1 L721.0,539.5 L733.4,567.2 L743.1,594.3 L752.3,619.7 L762.5,643.0 L774.5,664.6 L788.0,685.5 L801.7,706.3 L813.9,727.8 L822.9,750.3 L827.2,773.4 L826.6,796.9 L821.5,820.0Z" fill="none" stroke="#76D5C7" stroke-opacity="0.22" stroke-width="1"/><path d="M170,660 Q280.0,480 390,540 Q500.0,480 610,590 Q715.0,420 820,480 Q910.0,360 1000,420 Q1085.0,260 1170,320 Q1265.0,140 1360,200" fill="none" stroke="#F5A623" stroke-width="3" stroke-dasharray="2 12" stroke-linecap="round"/><circle cx="170" cy="660" r="10" fill="#0A0B14" stroke="#F5A623" stroke-width="3"/><text x="170" y="636" fill="#F5A623" font-family="Staatliches,sans-serif" font-size="26" text-anchor="middle">0</text><circle cx="390" cy="540" r="10" fill="#0A0B14" stroke="#F5A623" stroke-width="3"/><text x="390" y="516" fill="#F5A623" font-family="Staatliches,sans-serif" font-size="26" text-anchor="middle">1</text><circle cx="610" cy="590" r="10" fill="#0A0B14" stroke="#F5A623" stroke-width="3"/><text x="610" y="566" fill="#F5A623" font-family="Staatliches,sans-serif" font-size="26" text-anchor="middle">2</text><circle cx="820" cy="480" r="10" fill="#0A0B14" stroke="#F5A623" stroke-width="3"/><text x="820" y="456" fill="#F5A623" font-family="Staatliches,sans-serif" font-size="26" text-anchor="middle">3</text><circle cx="1000" cy="420" r="10" fill="#0A0B14" stroke="#F5A623" stroke-width="3"/><text x="1000" y="396" fill="#F5A623" font-family="Staatliches,sans-serif" font-size="26" text-anchor="middle">4</text><circle cx="1170" cy="320" r="10" fill="#0A0B14" stroke="#F5A623" stroke-width="3"/><text x="1170" y="296" fill="#F5A623" font-family="Staatliches,sans-serif" font-size="26" text-anchor="middle">5</text><circle cx="1360" cy="200" r="34" fill="#F5A623" fill-opacity=".15"/><circle cx="1360" cy="200" r="14" fill="#F5A623" stroke="#F5A623" stroke-width="3"/><text x="1360" y="176" fill="#F5A623" font-family="Staatliches,sans-serif" font-size="26" text-anchor="middle">6</text><g stroke="#A8B3CA" stroke-opacity=".5" fill="none"><circle cx="1460" cy="820" r="56"/><circle cx="1460" cy="820" r="44" stroke-dasharray="2 6"/><path d="M1460 748V892M1388 820H1532"/></g><path d="M1460 770l10 50-10 12-10-12z" fill="#F5A623"/><text x="1460" y="738" fill="#A8B3CA" font-family="Staatliches,sans-serif" font-size="22" text-anchor="middle">N</text></svg>